# xmcd
#
# Track frame offsets:
#	150
#	23790
#	43851
#	59790
#	80920
#	107515
#	128767
#	149537
#	170965
#	191723
#	210653
#	234048
#	257008
#	280331
#	300764
#
# Disc length: 4700 seconds
#
# Revision: 0
# Processed by: cddbd v1.5.1PL2 Copyright (c) Steve Scherf et al.
# Submitted via: EasyCDDAExtractor 8.1.2.3
#
DISCID=db125a0f
DTITLE=L'Skadrille - Nos vies
DYEAR=2006
DGENRE=Rap
TTITLE0=Touchante introduction
TTITLE1=Frappe à ma porte
TTITLE2=Ils veulent...!!!
TTITLE3=Bons moments feat Sniper
TTITLE4=L'oeil dans le rétro
TTITLE5=Malgré tout
TTITLE6=Mais que veulent elles ?
TTITLE7=Ce soir on sort feat J-Mi Siss
TTITLE8=Problèmes
TTITLE9=Constat des lieux
TTITLE10=Le son de l'indépendance feat
TTITLE11=Quand j'en ai marre de mentir
TTITLE12=HLM
TTITLE13=Nos vies
TTITLE14=Un peuple, un but, une foi
EXTD=
EXTT0=
EXTT1=
EXTT2=
EXTT3=
EXTT4=
EXTT5=
EXTT6=
EXTT7=
EXTT8=
EXTT9=
EXTT10=
EXTT11=
EXTT12=
EXTT13=
EXTT14=
PLAYORDER=
